<svg xmlns="http://www.w3.org/2000/svg" viewBox="0 0 559.17 525.47"><title>Get started</title><g id="details"><g id="background"><path d="M112.13,518.29c-6.79-.36-13.57-1.67-19.62-4.9a28,28,0,0,1-7.83-6.11c-1.52-1.73-2.94-5.74,1.13-5.73,1.06,0,1.92.54,3.07.47.59,0,1.06-.83.53-1.28a45.59,45.59,0,0,1-4.37-4.2,32.38,32.38,0,0,1-2.6-3.22q-2.52-2.55.22-6c.6.32,1.52-.4,1-1C82,484.12,76.17,474.56,83,476c3.84.78,7.95,5.51,11,7.9l20.26,15.77c.76.58,1.83-.47,1.06-1.06L98.2,485.22c-4.49-3.49-9.28-8.43-14.58-10.71-10.06-4.33-4.11,8.81-1.23,12.54l1-1c-2.28-1.25-4.48.1-4.63,2.7-.26,4.76,6.41,10.38,9.56,13.08l.53-1.28c-2.75.18-6.51-2.6-7.85,1.33-1,3.08,2.17,6.19,4.11,8,7.2,6.89,17.31,9.37,27,9.89,1,.06,1-1.44,0-1.5Z" transform="translate(-17.8 -33.9)" style="fill:#e8e8e8"/><path d="M101.11,488.23c-1.23-1.88-7.46-11.69-.29-11.05,2.32.21,4.57,3.05,7,3.72a.75.75,0,0,0,.73-1.25c-.64-.61-4.33-4-4-5l4.25-2.29,2.46,1.94c2.66,2.28,5.14,4.81,7.69,7.21l15.07,14.18c.71.66,1.77-.4,1.06-1.06L120,480.44c-3.54-3.33-7.43-8.37-12.07-10.25-1.74-.7-4.76-1.35-5.69,1-1.27,3.15,3.28,7.72,5.2,9.55l.73-1.25c-3.07-.86-8.54-6.68-11.91-2.77-2.71,3.14,1.88,9.81,3.52,12.3.53.8,1.82.05,1.29-.76Z" transform="translate(-17.8 -33.9)" style="fill:#e8e8e8"/><path d="M127.94,510.05c-2.17-1.7-5.25-4.13-4.16-7.29,1.38-4,7.37,0,9.8,1.14.87.4,1.63-.89.76-1.3-3.05-1.42-8.91-5.47-11.5-1.33-2.46,3.91,1.16,7.58,4,9.84.75.59,1.82-.46,1.06-1.06Z" transform="translate(-17.8 -33.9)" style="fill:#e8e8e8"/><path d="M125.16,484.64c-.67-1.79-2.89-5.49-2.73-7.31.44-5.12,5.78-.22,7.81,1.13L145,488.33c.8.54,1.55-.76.75-1.29l-12.56-8.39c-2.46-1.64-6.61-5.79-9.91-5.66-5.9.23-.51,9.61.4,12.05.34.89,1.79.51,1.45-.4Z" transform="translate(-17.8 -33.9)" style="fill:#e8e8e8"/><path d="M217,493.37a33.94,33.94,0,0,0,10.44-5.78c1.86-1.46,3.62-3,5.37-4.63.78-.7,1.54-1.42,2.33-2.11a17.29,17.29,0,0,1,2.47-2q1.78-1.93,4.43-.51a.75.75,0,0,0,1.25.73c3.48-3.44,8-7.16,12.91-8.44q4.38-1.76,3.58,4.68c-.57.86-1.17,1.7-1.8,2.51-1.37,1.87-2.77,3.7-4.15,5.55-.57.78.73,1.53,1.3.76,1.89-2.53,11.76-12.62,4.63-15.09-5.82-2-13.85,5.34-17.53,9l1.26.73c.54-1.67.48-1.31.19-3a.75.75,0,0,0-.72-.55c-4.47.54-7.38,3.25-10.62,6.18-4.77,4.32-9.53,8.5-15.74,10.55-.91.3-.52,1.75.4,1.45Z" transform="translate(-17.8 -33.9)" style="fill:#e8e8e8"/><path d="M228.66,506c2.44-3.31,14.77-17.13,19.33-11.92a.77.77,0,0,0,1.18-.15c3.25-4.26,9.72-11,15.67-10.14,1,.13,1.35-1.31.4-1.45-3.95-.58-7.5,1.68-10.6,4-1.91,1.42-3.34,3.48-5.2,4.86-1.61,1.21-.39.54-2.26.49-8-.21-15.4,7.59-19.82,13.57-.57.78.73,1.53,1.3.76Z" transform="translate(-17.8 -33.9)" style="fill:#e8e8e8"/><path d="M238.1,510.64c6.83-3.42,11.92-9.28,18.6-12.94,4.23-2.31,8.86-3.92,13.32-5.72,1.13-.46,4.58-2.56,5.5-2.22,5.61,2.05-1.14,5.6-2.53,6.66a.76.76,0,0,0,.18,1.37c2.63.75,2.84,3.91,1.06,5.66a15.27,15.27,0,0,1-3.83,2.12l-8,3.91c-.87.43-.11,1.72.76,1.3,3.9-1.91,12.08-4.1,14.15-8.36,1.74-3.58-.74-5.22-3.76-6.08l.18,1.37c2-1.54,8.9-4.78,7.52-8.35-1.51-3.9-7.62-.45-9.81.43-6.19,2.5-12.8,4.65-18.4,8.36-5.4,3.57-9.88,8.27-15.72,11.2-.86.43-.11,1.72.76,1.29Z" transform="translate(-17.8 -33.9)" style="fill:#e8e8e8"/><path d="M268.7,478.86c2.6-2.9,6.49-3.43,10.11-4.18l3.88-.81,2.44-.5c1.91-.89,3.18-.07,3.8,2.49-.66.7.4,1.76,1.07,1.06,3.12-3.3,1.66-6.28-2.83-5.49-6,1.06-15.19,1.54-19.54,6.37-.64.72.42,1.78,1.07,1.06Z" transform="translate(-17.8 -33.9)" style="fill:#e8e8e8"/><path d="M302.07,546.6a47.85,47.85,0,0,1-15.83-4.24,35.18,35.18,0,0,1-5.18-3.08,27.81,27.81,0,0,1-3.78-3.33c-.8-.86-5.28-5.74,1-3.45a.76.76,0,0,0,.85-1.11c-2-3.23-8.34-6.9-8.77-10.54-.59-4.91,5.94-1.25,8.24-.14a56.79,56.79,0,0,1,7.9,4.71c.79.55,1.54-.75.76-1.3-2.51-1.75-15.82-11.18-18.72-6.84-3,4.52,7.55,12,9.3,14.87l.84-1.1a6.7,6.7,0,0,0-4.81-.4.75.75,0,0,0-.53.52c-1,4.45,6.25,9.11,9.51,11.06,5.85,3.48,12.54,5.12,19.25,5.87,1,.11,1-1.39,0-1.5Z" transform="translate(-17.8 -33.9)" style="fill:#e8e8e8"/><path d="M288.27,521.3c-.54-.92-1.31-1.59-1.87-2.46q-3-3.42.57-3.27a6,6,0,0,0,.6.53c1.21.32,1.49.86,2.71.22a.76.76,0,0,0,.15-1.18A11.25,11.25,0,0,1,289,513.3c-1.11-1.5-.33-3,2.37-4.45.86.18,2.38,1.54,3.09,2l6.64,4.38c.81.54,1.56-.76.75-1.29-2.94-1.94-5.83-4-8.85-5.85-1.47-.88-3-1.68-4.64-.61-3.43,2.28-.92,6.43,1,8.72l.15-1.18c-.75.39-2.45-1.48-3.49-1.46a2.23,2.23,0,0,0-1.88,1.15c-1.83,2.89,1.59,5.21,2.82,7.35a.75.75,0,0,0,1.3-.76Z" transform="translate(-17.8 -33.9)" style="fill:#e8e8e8"/><path d="M134.11,529.3c-2.78,2.24-5.56,4.47-8.33,6.72-1.94,1.58-3.67,2.91-4.36,5.37a.76.76,0,0,0,1.1.85l9.3-4.84-1-1c-1.55,2.62-3.86,5.46-4.83,8.34-.41,1.23-.66,2.77.63,3.56s3-.34,4.18-1a72.68,72.68,0,0,0,7.82-5.48c.76-.59-.31-1.65-1.06-1.06-1.71,1.33-3.45,2.61-5.26,3.81-.63.41-2.86,2.3-3.41,2.13-3.2-1,2.49-8.26,3.22-9.5a.75.75,0,0,0-1-1l-9.3,4.84,1.11.85c.8-2.9,3.87-4.63,6-6.39l6.25-5c.75-.61-.32-1.66-1.06-1.06Z" transform="translate(-17.8 -33.9)" style="fill:#e8e8e8"/><path d="M193.75,524.67a33,33,0,0,0,14,11.26c.88.37,1.64-.92.76-1.29A31.67,31.67,0,0,1,195,523.91c-.56-.77-1.86,0-1.29.76Z" transform="translate(-17.8 -33.9)" style="fill:#e8e8e8"/><path d="M219.56,524a67.12,67.12,0,0,0,19.05,2.77.75.75,0,0,0,0-1.5A65.75,65.75,0,0,1,220,522.54a.75.75,0,0,0-.4,1.45Z" transform="translate(-17.8 -33.9)" style="fill:#e8e8e8"/><path d="M489.35,526.14a20.46,20.46,0,0,0,5.28-5.91c1-1.65,8.42-13.64,11.39-8.61a.75.75,0,0,0,1.29,0c2.05-4.09,7.06-10.92,12.62-9.54a.75.75,0,0,0,.4-1.44c-6.26-1.56-11.84,5.29-14.31,10.22h1.29c-1.65-2.81-5.2-1.41-7.38.12-5.05,3.54-6.36,10.22-11.33,13.87-.77.56,0,1.86.75,1.29Z" transform="translate(-17.8 -33.9)" style="fill:#e8e8e8"/><path d="M514.19,515c1.5-2.52,6.61-12.4,10.19-11a.75.75,0,0,0,.73-.19,54.81,54.81,0,0,1,4.93-5.61c1.15-1.08,9.52-8.27,9.41-1.49,0,1.86-2.9,5-3.91,6.58a97.67,97.67,0,0,1-6.43,8.74c-.61.74.45,1.81,1.06,1.06,4.16-5.08,9.2-11.07,11.45-17.3,1.44-4-1.75-4.51-5.09-3.47-5.66,1.75-8.28,7.22-13,9.81-2.06,1.13-3.06,1.42-4.75,3.47a67.89,67.89,0,0,0-5.9,8.67.75.75,0,0,0,1.29.76Z" transform="translate(-17.8 -33.9)" style="fill:#e8e8e8"/><path d="M516.81,522.64c.7-.54,6.28-5.49,7-3A.75.75,0,0,0,525,520a27,27,0,0,1,6.07-3.63c1.79-.76,2-1.4,2.76.7s.22,2.17-1,3.8c-.58.78.73,1.53,1.29.76,1.25-1.69,4.86-6.44,1.13-7.75-3.31-1.16-9,3.28-11.32,5.06l1.26.33c-1.4-5-7.23.64-9.17,2.12-.76.58,0,1.89.76,1.3Z" transform="translate(-17.8 -33.9)" style="fill:#e8e8e8"/><path d="M533.87,522.14a29.17,29.17,0,0,1,5.87-6.66c1.79-1.46,5.27-4.3,7.64-4.35,6.71-.15-.16,7.59-1.18,8.8a57.26,57.26,0,0,1-5.86,5.9c-.73.63.34,1.69,1.06,1.06,2.37-2.09,15.85-14.07,9-17.18-2.77-1.26-6.6,1.18-8.79,2.58a30.65,30.65,0,0,0-9,9.09c-.53.81.77,1.56,1.3.76Z" transform="translate(-17.8 -33.9)" style="fill:#e8e8e8"/><path d="M522.7,540.35a45.83,45.83,0,0,1,6.42-5.21c1.09-.72,5.73-4.18,7-3.19.74.6,1.81-.45,1.06-1.06-1.91-1.56-4.46.39-6.21,1.39a46.61,46.61,0,0,0-9.28,7c-.7.68.37,1.73,1.06,1.07Z" transform="translate(-17.8 -33.9)" style="fill:#e8e8e8"/><path d="M542.89,528.63c1.07-.54,2.54-1.41,3.78-.9,2.28.94.49,3.23-.17,4.2a25.43,25.43,0,0,1-3.74,4.35c-.7.67.36,1.72,1.06,1.06a27.28,27.28,0,0,0,3.79-4.38c.85-1.23,2.06-2.85,1.69-4.46-.81-3.45-5-2.25-7.16-1.16-.86.44-.11,1.73.75,1.29Z" transform="translate(-17.8 -33.9)" style="fill:#e8e8e8"/><path d="M511.24,559a20.78,20.78,0,0,1,6.49-6.8,28,28,0,0,1,3.19-1.83,28.44,28.44,0,0,1,2.71-1.18q2.28-1.25,3.92,1.76c-.75.58,0,1.89.76,1.3a2.57,2.57,0,0,0,.88-3.4c-.92-1.89-3.14-1.91-4.93-1.46a24.46,24.46,0,0,0-14.32,10.85.75.75,0,0,0,1.3.76Z" transform="translate(-17.8 -33.9)" style="fill:#e8e8e8"/><path d="M500.6,547.7c3.75-4,10-8.55,15.8-6.86a.75.75,0,0,0,.4-1.44c-6.35-1.86-13.11,2.81-17.26,7.24-.66.7.4,1.76,1.06,1.06Z" transform="translate(-17.8 -33.9)" style="fill:#e8e8e8"/><path d="M18.91,160.17C80.43,120.55,156,142.88,221,159.82c34.71,9,70,16.9,105.87,19,35.06,2.1,69.6-2.66,103.67-10.77,38.53-9.17,76.17-21.76,114.83-30.41.94-.21.54-1.66-.4-1.44-69.55,15.55-137,43.92-209.5,41.52-37.41-1.23-74.22-9.1-110.35-18.43-34.87-9-69.72-19.44-105.8-22.17C84.4,134.52,48,139.65,18.15,158.88c-.81.52-.06,1.82.76,1.29Z" transform="translate(-17.8 -33.9)" style="fill:#e8e8e8"/><path d="M275.6,148.28c80.55-13.21,154-50.85,232.45-71.77a416,416,0,0,1,68.2-12.65c1-.09,1-1.6,0-1.5C494.76,70,420.46,106.64,343.12,130.44a514.3,514.3,0,0,1-67.92,16.39c-.95.16-.55,1.61.4,1.45Z" transform="translate(-17.8 -33.9)" style="fill:#e8e8e8"/><path d="M51.64,261.41c10.89-1,21.21,2.22,31.17,6.32,10.87,4.48,21.62,9.29,32.42,13.95l61.44,26.53c.87.38,1.64-.91.75-1.3l-65.1-28.11c-10-4.31-19.9-8.8-30-12.87-9.85-4-20-7-30.7-6-1,.09-1,1.59,0,1.5Z" transform="translate(-17.8 -33.9)" style="fill:#e8e8e8"/><path d="M291.5,316.53c30.21,12.23,58.34,29.56,90.65,36.05,31.82,6.39,64.64,3.75,96.35-1.9,19.16-3.41,38.09-8,57-12.58.94-.23.54-1.67-.4-1.44-32.41,7.92-65.15,15.75-98.57,17.7a214.92,214.92,0,0,1-50.35-2.54c-16.14-2.9-31.5-8.33-46.45-15-16-7.11-31.57-15.19-47.82-21.77-.9-.36-1.29,1.09-.4,1.45Z" transform="translate(-17.8 -33.9)" style="fill:#e8e8e8"/><path d="M67.35,37.09c50.42-10.06,93.75,27,141.4,35.62.95.17,1.35-1.28.4-1.45-48-8.68-91.39-45.75-142.2-35.62-1,.19-.55,1.64.4,1.45Z" transform="translate(-17.8 -33.9)" style="fill:#e8e8e8"/></g><g id="details-2" data-name="details"><circle cx="174.15" cy="10.67" r="2.44" style="fill:#461eb8"/><circle cx="31.82" cy="222.65" r="2.02" style="fill:#461eb8"/><circle cx="92.85" cy="356.4" r="2.42" style="fill:#461eb8"/><circle cx="395.51" cy="45.16" r="4.04" style="fill:#ec615b"/><circle cx="43.36" cy="73.19" r="1.77" style="fill:#ec615b"/><circle cx="389.19" cy="111.14" r="2.52" style="fill:#ec615b"/><circle cx="333.25" cy="334.75" r="1.21" style="fill:#ec615b"/><circle cx="50.42" cy="291.93" r="1.07" style="fill:#ec615b"/><circle cx="529.41" cy="267.49" r="1.4" style="fill:none;stroke:#ec615b;stroke-miterlimit:10"/><circle cx="302.88" cy="155.47" r="4.08" style="fill:none;stroke:#ec615b;stroke-miterlimit:10"/><circle cx="543.12" cy="58.68" r="5.86" style="fill:none;stroke:#ec615b;stroke-miterlimit:10"/><circle cx="260.81" cy="378.45" r="3.22" style="fill:none;stroke:#461eb8;stroke-miterlimit:10"/><circle cx="141.5" cy="46.97" r="5.84" style="fill:none;stroke:#461eb8;stroke-miterlimit:10"/><circle cx="524.14" cy="377.06" r="8.72" style="fill:none;stroke:#461eb8;stroke-miterlimit:10"/></g><g id="sling"><path d="M265.58,107.56h0c0-6.19-11.13-11.2-24.86-11.2s-24.87,5-24.87,11.2a5.17,5.17,0,0,0,.21,1.41,11.05,11.05,0,0,0-.21,2.09V297.13a11.21,11.21,0,0,0,.9,4.41,139,139,0,0,1-72,.93V112.23a11.87,11.87,0,0,0-.82-4.3c0-.12,0-.25,0-.37,0-6.19-11.49-11.2-25.67-11.2s-25.68,5-25.68,11.2c0,.12,0,.25,0,.37a11.87,11.87,0,0,0-.82,4.3V308.12h0v10.33a91.68,91.68,0,0,0,9.83,9.82c17.8,15.28,38.45,21,55.06,23.14V502.61a11,11,0,0,0,11,11h29a11,11,0,0,0,11-11V351.25c16.76-2.17,35.22-7.85,48.68-23a63.28,63.28,0,0,0,9.83-14.81V111.06A11.3,11.3,0,0,0,265.58,107.56Z" transform="translate(-17.8 -33.9)" style="fill:#fff;stroke:#000;stroke-miterlimit:10"/><path d="M143.93,107.56a153.59,153.59,0,0,0-40.47,9.3c.61,12.39,1.3,31.5,1.16,54.85-.51,84.3-11.21,109.12,7.5,129.32,14.4,15.54,43.45,25.39,55.43,29.45a191,191,0,0,0,20.79,5.77A415,415,0,0,0,204.9,509.82a13.34,13.34,0,0,1-4.6,3.13c-2.12.85-4,.89-7.55.93a64.22,64.22,0,0,1-6.72-.3l-20.37-.18c-6.84-2.66-8.13-6.26-8.44-7.37a24.63,24.63,0,0,1-.5-4.65,59,59,0,0,1-.05-6.35c.17-3.29.21-41.79,0-143.76a98.79,98.79,0,0,1-64.88-32.81q.41-105.45.8-210.9a14.83,14.83,0,0,1,3-5.27c4.7-5.2,12-5.21,22.31-5.06,9.06.13,15.12.3,20.78,4.62A22.56,22.56,0,0,1,143.93,107.56Z" transform="translate(-17.8 -33.9)" style="fill:#919191;opacity:0.13"/><path d="M238,488.1" transform="translate(-17.8 -33.9)" style="fill:#919191"/><path d="M216.64,104.76c-.22,5.53-.53,13.83-.79,23.91-1,37.82.11,43.66-.31,78.92-.43,36.22-1.82,50.92.31,82.36.33,4.86.66,8.88.9,11.59a23.31,23.31,0,0,0,9.59,3.21,23.66,23.66,0,0,0,12.88-2.39q1.13-43,1-88.27-.26-53.84-2.39-104.5l27.79-2a24.31,24.31,0,0,0-7.47-8C247.48,92.53,231.21,94.83,216.64,104.76Z" transform="translate(-17.8 -33.9)" style="fill:#919191;opacity:0.13"/></g><g id="puch_2" data-name="puch 2"><path d="M215.85,191.14a44.76,44.76,0,0,0,16.79,6.65c16.65,2.88,29.75-4.85,33.5-7.25L504.43,328.85l-24.77,28.38L266.14,223.33a99,99,0,0,1-49.07-12Q216.47,201.23,215.85,191.14Z" transform="translate(-17.8 -33.9)" style="fill:#461eb8"/></g></g><g id="character"><g id="leg_right" data-name="leg right"><path d="M459.5,512.81l5.52,11.4q-31.68,22-30.31,24.25,1.62,2.73,49.57-22.11l-13.4-18.3Z" transform="translate(-17.8 -33.9)"/><path d="M436.39,345c-4.89,9.13-8.88,16.92-11.85,22.81-14,27.79-9.2,21.36-15.57,32.81-3.73,6.7-6.56,11-7.13,18.05a44.5,44.5,0,0,0,1.69,14.7,60.09,60.09,0,0,0,5,12.63c7.28,14.49,6,14.24,11.73,25.43a316.43,316.43,0,0,0,27.11,42.74,36.9,36.9,0,0,0,8.34-.43c12.3-2.06,20.31-10,23.66-13.75-6.26-10.74-11.34-20-15.17-27.28-4.93-9.32-10.5-19.87-16.88-34.21-2.75-6.19-4.91-11.4-6.38-15a113.1,113.1,0,0,1,5.56-12c5.2-9.67,9.93-15.08,18.26-25.91,10.61-13.78,15.9-20.73,15.41-23.69C479.61,358.47,475.6,349.42,436.39,345Z" transform="translate(-17.8 -33.9)" style="fill:#fff"/><path d="M470.39,358.29c-5.63,7-13.41,16.85-22.4,28.94-20.15,27.12-22.13,32.86-22.73,38.58-1.12,10.69,4.18,20.6,14.81,40a356.26,356.26,0,0,0,28.15,43.39L479.38,500c-3.95-5.72-7.88-11.83-11.73-18.34a310.7,310.7,0,0,1-27.58-61,181.81,181.81,0,0,1,16.11-23.49c18.89-23.36,36.85-33.57,34.53-38.52C489.82,356.74,485.78,355.23,470.39,358.29Z" transform="translate(-17.8 -33.9)" style="fill:#919191;opacity:0.25"/><path d="M428.93,357.9q-10.79,19.85-19.86,40.56c-2.74,6.29-5.95,12.72-7.78,19.34-1.72,6.23-.07,11.55,2.16,17.43a377.47,377.47,0,0,0,39.12,75.66c.53.8,1.83.05,1.29-.76a377.46,377.46,0,0,1-37.66-71.92c-2.87-7.33-5.52-13.88-2.9-21.79,2.34-7,5.58-13.88,8.59-20.65q8.42-18.91,18.34-37.11c.46-.85-.83-1.61-1.3-.76Z" transform="translate(-17.8 -33.9)"/><path d="M467.22,381.14q-7.85,10-15.1,20.52c-4.57,6.62-9.27,13.23-11.74,21-.3.92,1.15,1.31,1.44.39,2.43-7.59,7.11-14.1,11.59-20.59q7.13-10.34,14.87-20.22c.59-.75-.47-1.82-1.06-1.06Z" transform="translate(-17.8 -33.9)"/><path d="M440.59,423.51a303.14,303.14,0,0,0,38.15,76.82c.54.79,1.84,0,1.29-.75a301.92,301.92,0,0,1-38-76.47c-.3-.91-1.75-.52-1.45.4Z" transform="translate(-17.8 -33.9)"/><path d="M447,514.78c4.3,1.92,11.25-.69,15.38-2.06a39.12,39.12,0,0,0,15.69-9.46c.69-.68-.37-1.74-1.06-1.06A37.19,37.19,0,0,1,462.75,511c-3.79,1.34-11.19,4.16-15,2.46-.87-.39-1.64.9-.75,1.3Z" transform="translate(-17.8 -33.9)"/></g><g id="leg_left" data-name="leg left"><path d="M357.09,520.44l-6.47,11.24Q318.25,518.09,316.68,521q-1.86,3.45,38.6,29.61,8.48-12.32,17-24.62Z" transform="translate(-17.8 -33.9)"/><path d="M490.92,359.84a132.5,132.5,0,0,1-4,14c-2.85,8.19-8.21,21-23.33,41.73-7.32,10-9.52,11.76-33.77,40.47-6.91,8.19-12.56,14.95-16.31,19.45q-5.36,8.88-10.88,17.84-12.67,20.54-25.44,40A44.92,44.92,0,0,1,369.3,530a47.61,47.61,0,0,1-17.2-16c3.87-6.18,9.72-15.53,16.87-26.91s17.83-28.37,31.15-49.34c23.05-36.29,20.69-32.08,24.15-38,3.06-5.2,9-15.36,17.81-28.25,13.16-19.13,17.42-21.78,21.64-22.77C475.17,346.06,486.46,355.6,490.92,359.84Z" transform="translate(-17.8 -33.9)" style="fill:#fff"/><path d="M466.42,365.63a58.14,58.14,0,0,1,0,8.32c-1.22,17-9.7,29.46-19.63,42.26-20.26,26.09-23.21,23.36-37.27,42.92-10.83,15.08-10.77,19.05-23,35.61a264.64,264.64,0,0,1-25.41,29.65,44.93,44.93,0,0,0,16,9q14.22-23.25,29.67-46.92,5.1-7.8,10.21-15.45c11.42-13.69,20.69-24.47,27.07-31.8,6-6.9,11.83-13.51,19.35-23.49a189.76,189.76,0,0,0,12.7-18.63c4.68-8,8.36-14.24,10.73-23.24a68.16,68.16,0,0,0,2.14-20.49Z" transform="translate(-17.8 -33.9)" style="fill:#919191;opacity:0.1"/><path d="M488.69,364.38c-4.79,21.39-16.87,39.81-30.38,56.7-14.5,18.13-30,35.51-45,53.17-.62.73.44,1.8,1.06,1.06,15.78-18.5,32.12-36.66,47.12-55.79,12.83-16.37,24.09-34.22,28.68-54.74.21-.94-1.23-1.34-1.44-.4Z" transform="translate(-17.8 -33.9)"/><path d="M412.85,475.08Q395.23,504.35,376.53,533c-.53.81.77,1.56,1.3.76q18.68-28.62,36.32-57.88a.75.75,0,0,0-1.3-.76Z" transform="translate(-17.8 -33.9)"/><path d="M437.91,377.07q-43.61,68-86.46,136.52c-.51.82.79,1.58,1.3.76q42.86-68.5,86.45-136.52c.52-.82-.77-1.57-1.29-.76Z" transform="translate(-17.8 -33.9)"/><path d="M351.61,515a58.58,58.58,0,0,0,24.93,19.32c.9.36,1.28-1.09.4-1.45a56.73,56.73,0,0,1-24-18.62c-.58-.77-1.88,0-1.3.75Z" transform="translate(-17.8 -33.9)"/></g><g id="hand_right" data-name="hand right"><path d="M413.4,216.18c-.67.26.54,3.36-.51,7.67a15.65,15.65,0,0,1-1.29,3.49c-2.12-.07-4-.16-5.47-.23-4.42-.23-5.95-.4-7.09.64a4.76,4.76,0,0,0-1.23,3.1c-.27,1.82-.11,4,2.52,9.84,1.79,4,2.72,6,4.05,6.7,3.18,1.76,7.13-.11,8-.56a40.61,40.61,0,0,1,4.6,4.66c3.31,4,4.59,7.1,6.89,11.81a133.76,133.76,0,0,0,9.83,17.46,76.22,76.22,0,0,0,7.23,8.93,34.91,34.91,0,0,0,6.3.6c2.84,0,9.12-.32,21.24-6.34,8.74-4.36,13.11-6.53,15.53-10.26,3.57-5.52,4.81-13.52,1.5-18.53-.45-.69-2.16-3.28-4.76-3.51-2.25-.2-4,1.47-5.76,3-3.34,2.9-7.3,5-10.77,7.76a46.27,46.27,0,0,1-17,8.26,41.28,41.28,0,0,0-3.25-6.76c-2.76-4.62-4.34-5.21-9.52-11.52-.59-.72-3.23-4.24-8.51-11.27-1.58-2.09-2.87-3.82-3.76-5a54.27,54.27,0,0,0-4.48-13.82C415.9,218.63,414.05,215.93,413.4,216.18Z" transform="translate(-17.8 -33.9)" style="fill:#fff"/><path d="M399.06,236.44a15,15,0,0,0,5.77,4.2,15.56,15.56,0,0,0,10.68.24c1.27,1.87,3.36,5,5.82,9,10.83,17.45,11.9,23.69,19.18,28.16a26.88,26.88,0,0,0,15.3,3.64c16.17-.73,25.41-15.51,26.45-17.23a19.72,19.72,0,0,1-3.15,11.65c-2.05,3-4.49,4.46-9.27,7.17-5.68,3.22-12.91,7.2-22.59,7a34.74,34.74,0,0,1-6.71-.77,84.3,84.3,0,0,1-12.17-17.81c-2.91-5.78-4.92-11.52-10.43-19.17a76.83,76.83,0,0,0-4.86-6.07A8.22,8.22,0,0,1,409,248a8.73,8.73,0,0,1-6.12-2C398.7,242.72,399,237,399.06,236.44Z" transform="translate(-17.8 -33.9)" style="fill:#919191;opacity:0.14"/><path d="M481,251.72c-5.39.21-9.59,5.09-13.84,7.94a106.19,106.19,0,0,1-19.28,10.15c-.88.36-.5,1.81.4,1.45a110.19,110.19,0,0,0,15.18-7.48q3.78-2.26,7.36-4.84c3.09-2.24,6.11-5.56,10.18-5.72,1,0,1-1.53,0-1.5Z" transform="translate(-17.8 -33.9)"/><path d="M447.5,272.79c-.34-6-3.77-10.39-7.36-14.91q-8.28-10.42-16.6-20.82c-.6-.76-1.66.31-1.06,1.06l12.91,16.19c4.35,5.46,10.19,11.11,10.61,18.48.06,1,1.56,1,1.5,0Z" transform="translate(-17.8 -33.9)"/><path d="M423.62,236.56c-1.33-4.35-2.82-8.64-4.54-12.85-.95-2.31-2-6.59-4.36-7.9-.85-.48-1.37-.6-2.05.16s-.5,2.67-.5,3.55c0,3.26.35,6-1,9.12-.39.88.91,1.64,1.29.76a15.54,15.54,0,0,0,1.4-5.26c.08-1.22-.43-2.72-.13-3.85.5-1.92,1.18-2.17,2.11-.32a105.83,105.83,0,0,1,6.35,17c.28.92,1.73.53,1.45-.4Z" transform="translate(-17.8 -33.9)"/><path d="M412.06,228.32l.26-.79c.31-.91-1.14-1.31-1.44-.39l-.27.78c-.3.92,1.14,1.32,1.45.4Z" transform="translate(-17.8 -33.9)"/><path d="M411.53,227.77c-3.48-.77-9.29-2.34-12.69-.74-2.51,1.18-1.95,3.17-1.39,5.48,1.39,5.77,1.92,18.11,10.57,16.43.94-.18.54-1.63-.4-1.44l-5.14-2.1-.75-2c-.34-1.08-.56-2.21-.83-3.3l-1.64-6.58c-.15-.6-.92-2.34-.73-2.92.58-1.75,2.61-2.27,4.06-2.51,2.65-.43,5.94.5,8.54,1.07.94.21,1.34-1.23.4-1.44Z" transform="translate(-17.8 -33.9)"/><path d="M398,229.6a12.64,12.64,0,0,0,10.19,8.59c.94.13,1.35-1.31.4-1.45a11.18,11.18,0,0,1-9.15-7.54c-.3-.91-1.75-.52-1.44.4Z" transform="translate(-17.8 -33.9)"/><path d="M403.21,231.55a9.8,9.8,0,0,1,5.34,5.39c.35.89,1.8.5,1.45-.4a11.16,11.16,0,0,0-6-6.28c-.88-.38-1.64.91-.75,1.29Z" transform="translate(-17.8 -33.9)"/><path d="M398.41,236.82a14.21,14.21,0,0,0,8.18,6.54c.92.29,1.32-1.16.4-1.45a12.62,12.62,0,0,1-7.28-5.85.75.75,0,0,0-1.3.76Z" transform="translate(-17.8 -33.9)"/><path d="M399.61,240.89a9,9,0,0,0,6.73,6.12c.94.19,1.34-1.25.4-1.45a7.48,7.48,0,0,1-5.69-5.06c-.29-.92-1.74-.53-1.44.39Z" transform="translate(-17.8 -33.9)"/><path d="M404.06,248.47a6.14,6.14,0,0,0,7.82-.84c.67-.7-.39-1.76-1.06-1.06a4.62,4.62,0,0,1-6,.6c-.8-.54-1.55.75-.76,1.3Z" transform="translate(-17.8 -33.9)"/><path d="M412,247.48c4,2.43,6.39,7.51,8.65,11.5,2.05,3.63,4,7.34,5.93,11,3.82,7.13,7.93,14,13.41,20.05.65.72,1.7-.35,1.06-1.06-6.53-7.17-11-15.67-15.52-24.17-3.25-6.12-6.58-14.91-12.77-18.63a.75.75,0,0,0-.76,1.29Z" transform="translate(-17.8 -33.9)"/><path d="M440.75,290.42c5.77,2.05,13.33-.27,18.91-2.06a67.09,67.09,0,0,0,18.65-9.56c.77-.56,0-1.86-.76-1.29a66.19,66.19,0,0,1-16.71,8.87c-5.74,2-13.77,4.7-19.7,2.59-.91-.33-1.3,1.12-.39,1.45Z" transform="translate(-17.8 -33.9)"/></g><g id="torso"><path d="M488.35,250A31.86,31.86,0,0,0,477.86,253c-14.86,7.4-19.47,25.2-22.17,34.34-4.76,16.11-13.29,38.21-30.1,67.2a73.78,73.78,0,0,0,15.81,8.21c20.39,7.61,39.05,4.15,48,1.79,3.1-9.59,7.54-23.94,12.2-41.62,14.41-54.71,10.72-64.64,5.66-69.18C504.63,251.41,499.4,248.51,488.35,250Z" transform="translate(-17.8 -33.9)" style="fill:#ec615b"/></g><g id="pouch"><path d="M91.78,200.3A54.4,54.4,0,0,0,113,214.11a55.06,55.06,0,0,0,32.43,1.18l344,149.29c3.19-5.51,6.41-11.42,9.58-17.71,3.36-6.69,6.34-13.17,9-19.36L144.73,187.16a50.82,50.82,0,0,1-52.95-18Z" transform="translate(-17.8 -33.9)" style="fill:#461eb8"/></g><g id="hand_left" data-name="hand left"><path d="M501.07,251.52c-1.39-.14-5.2-.52-8,1.85s-3.08,6-3.25,8.67a27.76,27.76,0,0,0,2.39,12.44c1.69,4.42,3.3,10.93,6.5,23.95a166.25,166.25,0,0,1,3.45,18.51,37.83,37.83,0,0,1-11.8,1.27c-6.39-.34-11.16-2.28-20.11-6-5.85-2.44-10.16-4.66-17.74-6.47-6.58-1.58-7.26-.85-7.39-.56-.58,1.2,3.65,4.44,7.3,7-7.52,4.73-13.35,6-17.36,6.33a20.86,20.86,0,0,0-11.16,3.8c-.69.52-2.05,1.57-1.82,2.25.41,1.15,5.28.51,9.76-.32a16.13,16.13,0,0,0,2.76,3.28A18.44,18.44,0,0,0,446,332l-6.62,4c1.09.07,2.64.15,4.51.15,4.46,0,6.69,0,8.73-.74s2.11-1.34,7.55-5.09c1.82-1.25,3.34-2.23,4.35-2.88,1.77,1,4.4,2.38,7.63,4,8.92,4.51,14.37,7.27,21.71,9.48a50.27,50.27,0,0,0,18,2.35,15.23,15.23,0,0,0,7.64-2.17,14.74,14.74,0,0,0,5.66-7.3c1.56-4.1.86-7.32-.24-14.31-1.7-10.85-.2-4.26-2.14-15.66-3.67-21.51-4.32-17.51-5.82-28.81a54.32,54.32,0,0,0-4.44-15.28,14.43,14.43,0,0,0-5.22-6A14,14,0,0,0,501.07,251.52Z" transform="translate(-17.8 -33.9)" style="fill:#fff"/><path d="M501.34,253.5a96.08,96.08,0,0,1,5.46,8.91c9.51,17.6,10.92,33.41,12.12,48.69.92,11.64,1.32,17.52-1.41,20-8.15,7.4-33.42-2.33-38.39-4.25-5.48-2.11-8.69-4.19-13.33-3.23-6,1.24-7.9,6-16,9.65A34.67,34.67,0,0,1,439.37,336a23.76,23.76,0,0,0,10.08,0,28.57,28.57,0,0,0,8.09-3.37,44.79,44.79,0,0,0,7.33-5c2.95,1.66,7.23,4,12.53,6.46,16.65,7.83,25.24,8.95,30,9.24,6.42.39,9.59-.53,12.06-2.23a16.16,16.16,0,0,0,5.95-8.63c1.3-4.24.62-7.73,0-11.32-2.68-14.78,2,6.54-3.36-21.43-4.33-22.59-3.57-16.58-4.32-21.46-.48-3.08-1.73-7.46-4.22-16.23a11.68,11.68,0,0,0-3-5.62C507.53,253.6,503.37,253.43,501.34,253.5Z" transform="translate(-17.8 -33.9)" style="fill:#919191;opacity:0.15"/><path d="M493.53,252.4c-8.42,3.51-3.44,17.76-1.62,23.86a356.57,356.57,0,0,1,9.47,39.19c.17.95,1.61.55,1.44-.4-1.75-9.78-3.89-19.48-6.52-29.07-1.76-6.46-11.37-28.38-2.37-32.13.88-.37.5-1.82-.4-1.45Z" transform="translate(-17.8 -33.9)"/><path d="M501.54,254.22c12-4.65,15.36,23.59,16.89,30.71a363.28,363.28,0,0,1,6.08,37.95c.1.95,1.61,1,1.5,0a364.82,364.82,0,0,0-8.3-47.77c-1.71-7-4.8-26.91-16.57-22.34-.89.35-.51,1.8.4,1.45Z" transform="translate(-17.8 -33.9)"/><path d="M464.13,328.13c13.05,7.27,28.42,14.27,43.44,15.82,5.61.57,11.92-.49,15.75-5,4-4.68,3.3-11.13,2.56-16.77-.12-.94-1.63-.95-1.5,0,.87,6.6,1.45,14.28-5.15,18.26-6.15,3.71-13.77,1.94-20.26.24a146.27,146.27,0,0,1-34.08-13.84c-.84-.47-1.6.83-.76,1.3Z" transform="translate(-17.8 -33.9)"/><path d="M500.5,317.1c-13.93,2.56-27.51-4.58-40.09-9.61-.9-.36-1.29,1.09-.4,1.44,12.94,5.17,26.58,12.24,40.89,9.62,1-.18.55-1.62-.4-1.45Z" transform="translate(-17.8 -33.9)"/><path d="M460.23,307.65a35.88,35.88,0,0,0-9.24-3c-1.77-.3-4.73-1.11-6.37-.09a1.85,1.85,0,0,0-.31,3c2,2.32,5.5,2.46,7.42,5,.58.76,1.89,0,1.3-.75a8.94,8.94,0,0,0-2.72-2.4c-1.23-.73-3.84-1.25-3.76-2.81.07-1.41,1-.82,2.13-.71a31.64,31.64,0,0,1,4,.67,34.17,34.17,0,0,1,6.8,2.41c.87.41,1.63-.89.76-1.3Z" transform="translate(-17.8 -33.9)"/><path d="M451.69,312.13c-6.31,3.75-13.42,4.57-20.37,6.52-2.88.81-9.88,2.14-10,5.93a.74.74,0,0,0,.37.65c1.88,1,4.4.27,6.43.1,3.61-.3,7.2-.73,10.79-1.23,1-.14.54-1.58-.4-1.45-.45.06-15.21,1.75-15.22,1.51-.08-2.44,9-4.23,10.7-4.64,6.37-1.58,12.75-2.7,18.47-6.09a.75.75,0,0,0-.76-1.3Z" transform="translate(-17.8 -33.9)"/><path d="M430.32,325.49c2.55.83,4.78,2.44,7.37,3.14a22.92,22.92,0,0,0,7.75.33c1-.06,1-1.56,0-1.5-2.93.21-5.82.37-8.62-.71-2.08-.81-4-2-6.1-2.71-.92-.3-1.31,1.15-.4,1.45Z" transform="translate(-17.8 -33.9)"/><path d="M432.72,327c2.12,1.57,3.9,3.44,6.37,4.49a14.4,14.4,0,0,0,7.25,1c1-.09,1-1.59,0-1.5a13,13,0,0,1-7.78-1.44,48.74,48.74,0,0,1-5.09-3.87c-.77-.57-1.52.73-.75,1.3Z" transform="translate(-17.8 -33.9)"/><path d="M445.79,331.32c-2.45.91-6.59,1.48-7.14,4.52a.77.77,0,0,0,.72,1c4.7.45,9.66.84,14.16-.86,4.83-1.83,7.53-6.71,12.44-8.3.91-.3.52-1.74-.4-1.45-4.39,1.43-6.7,5.29-10.64,7.42a19.94,19.94,0,0,1-10.06,2.06,24.42,24.42,0,0,1-3.94-.22c-.13-.93,4.67-2.46,5.26-2.68.89-.33.5-1.78-.4-1.44Z" transform="translate(-17.8 -33.9)"/></g><g id="head"><path d="M478,196c-1.61,2.54-2.13,4.82-3.08,8.94a46.62,46.62,0,0,0-.4,18.56,47.35,47.35,0,0,0,3.15,10.29c1.82,4.37,2.85,6.75,5.36,8.61a13.27,13.27,0,0,0,8.11,2.4l-3.52,6.32a15.62,15.62,0,0,0,5.37,2.29,16.7,16.7,0,0,0,11.07-1.59,105.9,105.9,0,0,1,5.12-9.5,108.66,108.66,0,0,1,6.49-9.52,10.1,10.1,0,0,0,8.58-.26,9.41,9.41,0,0,0,4.47-5.7c.25-1.09.25-2.18-.8-6-1.34-4.84-2.65-9.42-6.12-14.93-.48-.76-1.09-1.68-2.13-3.09-7.07-9.64-10.61-14.45-15.64-16.42C495.21,182.93,483,188.05,478,196Z" transform="translate(-17.8 -33.9)" style="fill:#fff"/><path d="M478.67,193.08c-7.7,14.46-8.06,34.88,2.48,48.24,4.55,5.77,13.52,4.46,19.71,2.38a33.1,33.1,0,0,0,17.7-14.18c.51-.82-.78-1.58-1.29-.76A31.6,31.6,0,0,1,501.15,242a29.41,29.41,0,0,1-9.78,1.82c-6.05,0-9.08-2.8-11.76-7.9a45.3,45.3,0,0,1,.36-42.11c.45-.85-.84-1.61-1.3-.76Z" transform="translate(-17.8 -33.9)"/><path d="M516.17,232.71c4.65,3.26,10.42.57,12.71-4.18,2.11-4.38.76-10.24-5-10.06a.75.75,0,0,0,0,1.5c5.43-.17,5.17,5.78,3,9.11s-6.5,4.73-9.92,2.33c-.79-.55-1.55.75-.76,1.3Z" transform="translate(-17.8 -33.9)"/><path d="M515.89,230.6a158.64,158.64,0,0,0-13,21.9c-.42.86.87,1.62,1.29.75a160.31,160.31,0,0,1,13-21.9c.56-.79-.74-1.54-1.3-.75Z" transform="translate(-17.8 -33.9)"/><path d="M490.54,244.38l-2.84,5.21c-.46.84.84,1.6,1.3.75l2.83-5.2c.46-.85-.83-1.6-1.29-.76Z" transform="translate(-17.8 -33.9)"/><path d="M497,201.63a54.59,54.59,0,0,0-7.42,20.71c-.07.49.32,1.17.92.92a13.84,13.84,0,0,0,4.59-2.95c.7-.66-.36-1.72-1.06-1.06a9.54,9.54,0,0,1-3.93,2.57l.92.92a53.48,53.48,0,0,1,7.28-20.35.75.75,0,0,0-1.3-.76Z" transform="translate(-17.8 -33.9)"/><path d="M488.27,231.15c-3.22-5,4.58-4.41,7-5,1.67-.38,2.26-1.07,3.43-2.2,1.58-1.53,3.79-3.93,6-.86,1.56,2.15.15,5.29-1.4,7-2.62,2.85-7.27,4.59-11,3.6a.75.75,0,0,0-.4,1.44c4.6,1.23,10.41-1,13.23-4.89,2.07-2.82,2.66-8.41-1.43-9.88a5,5,0,0,0-4.66,1.07c-1.38,1.08-1.7,2-3.41,2.75-2,.82-3.62.39-5.62.78a4.41,4.41,0,0,0-3.06,6.93c.51.81,1.81.06,1.29-.76Z" transform="translate(-17.8 -33.9)"/><path d="M488.64,207.1a2.36,2.36,0,0,1,.73-1.67l-1.28-.53a4.8,4.8,0,0,1-1,3.32l1.37.18a5.49,5.49,0,0,1,.69-2.85c.38-.88-.91-1.64-1.3-.76a7.29,7.29,0,0,0-.83,4c.1.73,1,.61,1.37.18a6.05,6.05,0,0,0,1.24-4.08.76.76,0,0,0-1.28-.53,3.92,3.92,0,0,0-1.17,2.73.75.75,0,0,0,1.5,0Z" transform="translate(-17.8 -33.9)"/><path d="M504.08,211.35a3.52,3.52,0,0,1,1.17-2.24l-1.28-.53a5.61,5.61,0,0,1-.27,1.46c-.06.22-.32,1.14-.55,1.24h.75c.13.13.17.09.14-.12a.9.9,0,0,1,.2-.34c.58-.77-.72-1.52-1.3-.76a2.08,2.08,0,0,0-.32,1.88.94.94,0,0,0,1.39.58,3.45,3.45,0,0,0,1-1.65,7.48,7.48,0,0,0,.47-2.29.76.76,0,0,0-1.28-.53,5.14,5.14,0,0,0-1.61,3.3c-.1,1,1.4,1,1.5,0Z" transform="translate(-17.8 -33.9)"/><path d="M488.25,198.52c.92-1.29,2.85-2.81,4.26-1.22.64.72,1.7-.34,1.06-1.06-2.11-2.38-5.15-.53-6.61,1.53-.56.78.74,1.53,1.29.75Z" transform="translate(-17.8 -33.9)"/><path d="M506.63,202.71c1.68-2,3.75.36,4.21,2.07a.75.75,0,0,0,1.45-.4,5.14,5.14,0,0,0-2.77-3.58,3.48,3.48,0,0,0-3.95.85c-.62.73.43,1.8,1.06,1.06Z" transform="translate(-17.8 -33.9)"/><path d="M475.41,203.1c-5.11-.25-9.66-2.84-11.36-6.78-2.48-5.74,1.15-14.28,9.63-17.29.74-8.37,4.25-10.93,5.3-11.59,6.74-4.26,20.72,1.13,32.23,16.31a29.74,29.74,0,0,1,25.34,32c1.59.87,7.26,4.24,8.85,10.61,2,8-3.23,17.73-13.37,22.21a14.69,14.69,0,0,1-9.23,5.3c-5.91.74-12-2.7-15.25-8.69a26.35,26.35,0,0,1,9-13.1,7.91,7.91,0,0,0,1.9,1,8.37,8.37,0,0,0,7.19-.86c4.33-2.8,3.68-8.39,3.63-8.74-.15-1.12-.4-3-2-4.09a4.93,4.93,0,0,0-3.84-.5,88.32,88.32,0,0,0-27.89-30,36.4,36.4,0,0,0-15.13,8.45A35.09,35.09,0,0,0,475.41,203.1Z" transform="translate(-17.8 -33.9)" style="fill:#461eb8"/><path d="M511.56,202.61c-.93.49,3.29,6.7,2.53,15.26-.87,9.85-7.77,16.47-9.28,17.92a32.14,32.14,0,0,1-17.62,8.51,44.93,44.93,0,0,0,8.41-.07,46.08,46.08,0,0,0,8.23-1.59q-3.1,5.94-6.19,11.89a10.75,10.75,0,0,0,9.91-9.33,12.21,12.21,0,0,0,3.51,4.56c2.37,1.91,6.46,3.69,7.6,2.49,1.65-1.74-5-7.59-4.08-16.29.1-1,.53-4.32,2.12-4.73,1.43-.37,2.32,2,4.67,2.26,3.18.34,5.81-3.56,6-3.84,1.39-2.12,2.83-6.27.6-8.82a6.06,6.06,0,0,0-4.25-1.82C515.06,205.33,512.25,202.24,511.56,202.61Z" transform="translate(-17.8 -33.9)" style="fill:#919191;opacity:0.12"/></g></g></svg>